PathFileType	4	(X/Y/Z)	C:\Users\Basilio\Documents\Thesis Gigler\squatting_fais\c3dfiles\047\SJ_pre3\markers_experimental.trc
DataRate	CameraRate	NumFrames	NumMarkers	Units	OrigDataRate	OrigDataStartFrame	OrigNumFrames
200.000000	200.000000	4	60	mm	200.000000	0	1714
Frame#	Time	FHD			LBHD			RBHD			C7			T10			CLAV			LSHO			LUUPA			LMUPA			LDUPA			LLEP			LMEP			LRAD			LUL			LRFIN			RSHO			RUPA1			RMUPA			RDUPA			RLEP			RMEP			RRAD			RUL			RUFIN			LASI			RASI			USACR			LSACR			RSACR			LTHI1			LTHI2			LTHI3			LTHI4			LLFC			LMFC			LTIB1			LTIB2			LTIB3			LTIB4			LLMAL			LMMAL			LMT1			LMT2			LMT5			RTHI			RTHI2			RTHI3			RTHI4			RLFC			RMFC			RTIB1			RTIB2			RTIB3			RTIB4			RLMAL			RMMAL			RHEE			RMT1			RMT2			RMT5			
		X1	Y1	Z1	X2	Y2	Z2	X3	Y3	Z3	X4	Y4	Z4	X5	Y5	Z5	X6	Y6	Z6	X7	Y7	Z7	X8	Y8	Z8	X9	Y9	Z9	X10	Y10	Z10	X11	Y11	Z11	X12	Y12	Z12	X13	Y13	Z13	X14	Y14	Z14	X15	Y15	Z15	X16	Y16	Z16	X17	Y17	Z17	X18	Y18	Z18	X19	Y19	Z19	X20	Y20	Z20	X21	Y21	Z21	X22	Y22	Z22	X23	Y23	Z23	X24	Y24	Z24	X25	Y25	Z25	X26	Y26	Z26	X27	Y27	Z27	X28	Y28	Z28	X29	Y29	Z29	X30	Y30	Z30	X31	Y31	Z31	X32	Y32	Z32	X33	Y33	Z33	X34	Y34	Z34	X35	Y35	Z35	X36	Y36	Z36	X37	Y37	Z37	X38	Y38	Z38	X39	Y39	Z39	X40	Y40	Z40	X41	Y41	Z41	X42	Y42	Z42	X43	Y43	Z43	X44	Y44	Z44	X45	Y45	Z45	X46	Y46	Z46	X47	Y47	Z47	X48	Y48	Z48	X49	Y49	Z49	X50	Y50	Z50	X51	Y51	Z51	X52	Y52	Z52	X53	Y53	Z53	X54	Y54	Z54	X55	Y55	Z55	X56	Y56	Z56	X57	Y57	Z57	X58	Y58	Z58	X59	Y59	Z59	X60	Y60	Z60	

1	0	55.78638076782228	1449.07373046875	-851.2515258789065	-34.98553848266602	1586.350830078125	-933.6276855468752	-48.62521743774415	1604.372314453125	-788.0081787109377	-245.1939544677735	1507.310791015625	-868.308288574219	-381.1219177246094	1195.425415039063	-872.4038696289065	-141.9924011230469	1377.83642578125	-869.9912109375002	-192.2798309326172	1441.771118164063	-1042.25146484375	-337.4378967285157	1362.728515625	-1160.641967773438	-307.7896423339844	1327.932373046875	-1185.058959960938	-364.0546264648438	1313.101684570313	-1202.466796875	-373.2669677734376	1250.965942382813	-1239.232055664063	-427.0921630859376	1230.212036132813	-1158.690551757813	-282.7465209960938	1075.5869140625	-1079.099365234375	-253.4565582275391	1040.818481445313	-1142.958374023438	-224.6363220214844	1055.801513671875	-1043.4423828125	-201.5274200439454	1446.36279296875	-705.0289916992189	-360.7094421386719	1366.82861328125	-589.0074462890626	-337.4907531738282	1328.949096679688	-566.0380249023439	-394.8059692382814	1316.787109375	-552.3148193359376	-407.2669372558595	1249.693969726563	-521.8951416015626	-459.8575439453126	1232.068603515625	-596.7070922851564	-284.6980895996094	1086.057983398438	-670.3047485351564	-280.8627624511719	1043.538818359375	-606.9358520507814	-233.1689147949219	1045.992919921875	-698.6455078125001	-236.979965209961	942.0059814453127	-992.1878051757815	-238.1568603515626	945.6767578125002	-759.1734008789064	-406.0639038085939	1051.192260742188	-881.7442626953127	-414.6605224609376	1021.758972167969	-910.9010009765627	-413.1441345214845	1020.932373046875	-852.5769653320315	-333.3980712890626	811.9328613281252	-1083.030029296875	-299.6380920410157	735.4072265625001	-1094.239135742188	-251.3251647949219	735.8974609375001	-1081.421630859375	-328.2766418457032	681.8068847656251	-1098.337158203125	-347.7621765136719	509.2355041503907	-1089.779541015625	-306.3667602539063	478.8557434082032	-977.4763793945315	-308.3341369628907	312.4008789062501	-1039.628295898438	-329.1736450195313	279.3461914062501	-1118.33984375	-305.7152709960938	270.7330322265626	-1079.008178710938	-316.5656738281251	189.606185913086	-1063.424194335938	-373.4426879882813	96.12490844726565	-1122.7333984375	-335.3179016113282	103.7085647583008	-1038.3388671875	-212.8861999511719	64.27406311035158	-1091.281860351563	-223.3504486083985	63.97006607055665	-1133.737182617188	-272.0675964355469	44.15635681152344	-1171.768188476563	-346.0249023437501	782.664245605469	-668.2199096679689	-308.9833374023438	726.9230957031251	-660.9246215820314	-277.0179138183594	727.7357177734376	-666.9288330078126	-337.9142150878907	647.8940429687501	-668.0149536132814	-329.0187072753907	498.415985107422	-683.0792236328126	-297.9361267089844	489.6997985839845	-800.1557617187502	-293.6504211425782	368.9044494628907	-694.3865966796876	-360.8452758789063	288.8388671875001	-662.3916015625001	-315.7030639648438	287.5848083496094	-673.1906127929689	-304.9040222167969	239.0368804931641	-707.3084106445314	-376.2155151367188	89.36278533935548	-680.7730102539064	-336.5899353027344	106.9235534667969	-766.1463012695314	-423.0823059082032	50.02657318115236	-744.1431884765626	-210.8213195800782	58.03792190551759	-726.9319458007814	-217.624740600586	61.98535919189455	-682.2084960937501	-270.1201171875001	33.25761795043946	-632.3746337890626	
2	0.005	56.35803222656251	1448.960815429688	-851.052429199219	-34.34653091430665	1586.299194335938	-933.5776977539065	-48.16994476318361	1604.434936523438	-788.0234985351565	-244.7669219970704	1507.321655273438	-868.356872558594	-380.5870971679688	1195.335327148438	-872.4937133789065	-141.7418518066407	1377.803466796875	-869.9009399414065	-191.6854858398438	1441.770751953125	-1042.23779296875	-336.7651977539063	1362.758911132813	-1160.7373046875	-306.9105529785157	1328.009643554688	-1185.1005859375	-363.2042541503907	1313.196166992188	-1202.639282226563	-372.4286804199219	1251.078002929688	-1239.463256835938	-426.432098388672	1230.263061523438	-1158.927978515625	-282.1537475585938	1075.74365234375	-1079.210693359375	-252.8507537841797	1040.932006835938	-1143.0205078125	-223.999984741211	1055.930541992188	-1043.533813476563	-201.2518920898438	1446.369873046875	-705.1238403320314	-360.7086181640626	1366.83056640625	-589.2439575195314	-337.4820861816407	1329.052856445313	-566.1616821289064	-394.8362731933595	1316.847290039063	-552.5371093750001	-407.6774291992189	1249.943115234375	-521.2275390625001	-459.7748413085939	1232.156860351563	-597.0338745117189	-284.4373779296876	1086.143310546875	-670.3980102539064	-280.7355346679688	1043.567504882813	-607.0109252929689	-232.9136657714844	1046.136840820313	-698.6655273437501	-236.4703063964844	942.1151123046877	-992.3344726562502	-237.7172546386719	945.5301513671877	-759.3104248046876	-405.5437927246095	1051.16064453125	-881.8657226562502	-414.2130432128907	1021.799255371094	-911.0687255859377	-412.7339172363282	1020.893676757813	-852.698425292969	-332.9248657226563	812.0793457031252	-1083.233032226563	-299.0755310058594	735.4942016601564	-1094.570190429688	-250.8047332763672	735.8591918945314	-1081.60400390625	-327.8652648925782	681.9089965820314	-1098.520751953125	-347.5320739746094	509.3584594726564	-1089.988159179688	-306.1445922851563	479.0087890625001	-977.6680908203127	-308.3162841796876	312.4245300292969	-1039.760864257813	-327.6810607910157	279.7859497070313	-1119.3974609375	-305.6488037109376	270.8128051757813	-1079.2001953125	-316.3341369628907	189.6765594482422	-1063.561645507813	-373.4492492675782	96.21732330322268	-1122.734252929688	-335.1639099121094	103.7507629394532	-1038.4453125	-213.1304626464844	63.40974807739259	-1090.837524414063	-223.4351806640626	63.76956176757814	-1133.79248046875	-272.1220092773438	44.09307098388673	-1171.895263671875	-346.1014404296876	782.6387939453127	-668.4641113281251	-309.3544006347657	726.8433227539064	-660.9558105468751	-277.2890014648438	727.6313476562501	-666.8795166015626	-338.1319885253907	647.8415527343751	-668.1596069335939	-329.6591186523438	498.4005432128907	-683.1173706054689	-298.2044067382813	489.505096435547	-800.1751708984377	-293.9523010253907	368.9427795410157	-694.1123657226564	-361.3936767578126	288.7539367675782	-662.4779052734376	-316.2406616210938	287.5785827636719	-672.8179931640626	-304.9703674316407	239.0140991210938	-706.7951660156251	-375.7928161621094	89.26076507568361	-680.8585205078126	-335.9749755859376	106.7343215942383	-765.9821777343751	-422.815643310547	50.30713272094728	-744.2008666992189	-210.7451934814454	57.18336868286134	-726.0427246093751	-216.9431457519532	62.26636505126955	-681.2494506835939	-270.1776733398438	32.77531814575196	-631.9038085937501	
3	0.01	56.78003692626955	1448.84814453125	-850.9350585937502	-33.89426040649415	1586.291625976563	-933.5003662109377	-47.70433044433594	1604.448852539063	-787.9212036132815	-244.4402618408204	1507.45849609375	-868.3746337890627	-380.0276794433594	1195.272216796875	-872.5022583007815	-141.397201538086	1377.89990234375	-869.792175292969	-190.9708557128907	1441.721435546875	-1042.2138671875	-336.0486755371094	1362.75341796875	-1160.88623046875	-306.1520690917969	1328.078735351563	-1185.248046875	-362.5543823242188	1313.271728515625	-1202.812744140625	-371.5879516601563	1251.163818359375	-1239.670532226563	-426.0050354003907	1230.31640625	-1159.109985351563	-281.3912963867188	1075.842529296875	-1079.398193359375	-252.0991973876954	1041.05908203125	-1143.13427734375	-223.4157714843751	1056.042114257813	-1043.643920898438	-200.9046630859376	1446.4716796875	-705.1718750000001	-360.6990661621094	1366.88037109375	-589.4793090820314	-337.4835205078126	1329.140869140625	-566.3220825195314	-394.7977294921876	1316.875	-552.7248535156251	-407.7014465332032	1249.974853515625	-521.5380249023439	-459.576385498047	1232.196533203125	-597.3480834960939	-284.1090393066407	1086.182495117188	-670.5098266601564	-280.5559997558594	1043.639282226563	-607.0653076171876	-232.6473846435547	1046.174926757813	-698.6260375976564	-235.5691833496094	942.2366943359377	-992.5989990234377	-237.3023986816407	945.3796386718752	-759.4229736328126	-404.8224182128907	1051.369873046875	-881.7380981445315	-413.6402893066407	1021.80322265625	-911.2549438476565	-412.226531982422	1020.799987792969	-852.792419433594	-332.4044189453126	812.213562011719	-1083.483764648438	-298.6172790527344	735.6234741210939	-1094.855224609375	-250.3480224609376	735.8799438476564	-1081.838989257813	-327.4636535644532	682.0741577148439	-1098.735107421875	-347.3314819335938	509.4796142578126	-1090.145751953125	-305.9044494628907	479.1177978515626	-977.8233032226565	-308.2705688476563	312.4604797363282	-1039.963134765625	-327.5772399902344	279.9181518554688	-1119.640625	-305.1179199218751	270.6149291992188	-1079.68798828125	-315.9963378906251	189.68603515625	-1063.821044921875	-373.4573669433594	96.27841949462893	-1122.801025390625	-335.0373229980469	103.8177490234375	-1038.51708984375	-213.1445465087891	63.25436782836915	-1090.944580078125	-221.8495635986329	64.88565063476564	-1134.660034179688	-271.9212951660157	43.93937301635743	-1172.042236328125	-346.2301025390626	782.6612548828127	-668.7678833007814	-309.5465087890626	726.8067016601564	-661.1168212890626	-277.3754272460938	727.5435180664064	-666.9273681640626	-338.3088989257813	647.8195190429689	-668.3424072265626	-330.3108825683594	498.2751770019532	-683.1293945312501	-298.1055603027344	489.2269287109376	-799.9943847656252	-294.4777221679688	369.1439514160157	-693.6776123046876	-361.9675598144532	288.6679382324219	-662.6259765625001	-316.8093566894532	287.6032104492188	-672.4618530273439	-305.0581359863282	239.0430450439454	-706.1334228515626	-375.5793151855469	89.36933898925783	-680.7750854492189	-335.5670776367188	106.6474990844727	-765.9798583984376	-422.3455505371095	50.74780654907228	-744.4591064453126	-210.4523315429688	56.58013916015626	-725.6884765625001	-216.9688110351563	61.16880035400392	-680.3455200195314	-270.2700500488282	32.30025863647462	-631.4676513671876	
4	0.015	57.11876678466798	1448.894775390625	-850.8294677734377	-33.34111785888673	1586.318115234375	-933.4651489257815	-47.14919662475587	1604.440185546875	-787.8734130859377	-244.292465209961	1507.767822265625	-868.3073730468752	-379.3740844726563	1195.246826171875	-872.503845214844	-141.0100860595703	1377.858154296875	-869.6526489257815	-190.3912811279297	1441.702880859375	-1042.16845703125	-335.4507446289063	1362.7763671875	-1161.0185546875	-306.9059143066407	1327.816528320313	-1184.25537109375	-361.9385375976563	1313.33056640625	-1203.003295898438	-370.8925781250001	1251.178466796875	-1239.925537109375	-425.2156372070314	1230.309814453125	-1159.468994140625	-280.5289001464844	1075.880004882813	-1079.556274414063	-251.2722930908204	1041.16845703125	-1143.3212890625	-222.794418334961	1056.15625	-1043.711059570313	-200.6334075927735	1446.51220703125	-705.1893920898439	-360.5559082031251	1366.96923828125	-589.6994628906251	-337.4769592285157	1329.149047851563	-566.3721923828126	-394.741180419922	1316.953491210938	-552.9495239257814	-407.7522277832032	1250.020629882813	-521.7635498046876	-459.414520263672	1232.2265625	-597.7153930664064	-283.7185363769532	1086.197265625	-670.5979614257814	-280.3973388671876	1043.6630859375	-607.1286621093751	-232.4227447509766	1046.238403320313	-698.5585327148439	-235.0508728027344	942.3831787109377	-992.5592041015627	-236.7913055419922	945.2371215820315	-759.6111450195314	-404.6872863769532	1051.127685546875	-881.975280761719	-413.0704345703126	1021.77294921875	-911.3850708007815	-411.5577087402345	1020.659240722656	-852.912536621094	-331.8424987792969	812.4205322265627	-1083.691528320313	-298.1791992187501	735.7399291992189	-1095.158325195313	-249.9749450683594	735.8901977539064	-1082.066162109375	-327.1972656250001	682.2438964843751	-1098.94970703125	-347.2409362792969	509.5960693359376	-1090.305908203125	-305.8173522949219	479.3204650878907	-978.0264892578127	-308.2565307617188	312.4839477539063	-1040.129150390625	-327.5533447265626	280.0818176269532	-1119.87841796875	-305.3711242675782	271.2421875000001	-1079.83544921875	-315.9631652832032	189.833984375	-1063.94873046875	-373.4566040039063	96.36090850830081	-1122.894897460938	-334.9652709960938	103.9398727416992	-1038.700805664063	-213.1257629394532	63.18492126464845	-1091.059204101563	-221.8608093261719	64.73718261718751	-1134.831665039063	-271.9465026855469	43.86507034301759	-1172.219360351563	-346.3119201660157	782.664733886719	-669.0399169921876	-309.7067565917969	726.8040161132814	-661.2185058593751	-277.6927490234376	727.4457397460939	-666.6948852539064	-338.5483093261719	647.7871093750001	-668.4758911132814	-330.7966308593751	498.300750732422	-683.2682495117189	-297.9349060058594	488.9016418457032	-799.7315673828127	-294.8752136230469	369.1260681152344	-693.3624267578126	-362.5718994140626	288.6689147949219	-662.7821655273439	-317.4373474121094	287.7197265625001	-672.1313476562501	-305.0476074218751	239.1454162597657	-705.7976074218751	-375.6596374511719	89.72122955322267	-680.7763061523439	-335.1957092285157	106.5857772827149	-766.0458984375001	-422.0423278808595	50.80688476562501	-744.6414794921876	-210.4414062500001	56.54891967773439	-725.4236450195314	-217.1276245117188	60.33288955688478	-680.7310180664064	-270.2757568359376	32.06901550292969	-631.2753906250001	
